# xmcd
#
# Track frame offsets:
#	183
#	12435
#	23520
#	34760
#	43363
#	53823
#	66140
#	75025
#	85000
#	96810
#	105798
#	114985
#	126890
#	137563
#	151538
#	162325
#
# Disc length: 2356 seconds
#
# Revision: 1
# Processed by: cddbd v1.4PL0 Copyright (c) Steve Scherf et al.
# Submitted via: audiograbber 1.80
#
DISCID=af093210
DTITLE=Sylvie Vartan - Les succés de...
DYEAR=1900
DGENRE=
TTITLE0=Baby, c'est vous
TTITLE1=Cri de ma vie
TTITLE2=Chance
TTITLE3=Il revient
TTITLE4=En écoutant la pluie
TTITLE5=Sois pas cruel
TTITLE6=Si je chante
TTITLE7=Moi je pense encore à toi
TTITLE8=Tous mes copains
TTITLE9=Twiste et chante
TTITLE10=Je ne vois que toi
TTITLE11=La plus belle pour aller danser
TTITLE12=Il y a deux filles en moi
TTITLE13=Tourne, tourne, tourne
TTITLE14=Le locomotion
TTITLE15=Par amour, par pitié
EXTD=
EXTT0=
EXTT1=
EXTT2=
EXTT3=
EXTT4=
EXTT5=
EXTT6=
EXTT7=
EXTT8=
EXTT9=
EXTT10=
EXTT11=
EXTT12=
EXTT13=
EXTT14=
EXTT15=
PLAYORDER=
